<?xml version="1.0" encoding="utf-8"?><svg viewBox="0 0 21 21" xmlns="http://www.w3.org/2000/svg" xmlns:xlink="http://www.w3.org/1999/xlink"><style>:root>svg{display:none}:root>svg:target{display:block}</style><svg viewBox="0 0 20 21" id="bag" xmlns="http://www.w3.org/2000/svg"><path fill-rule="evenodd" clip-rule="evenodd" d="M5.461 5.224A4.523 4.523 0 0110.002.75c2.48 0 4.494 2 4.52 4.474h.22a5.006 5.006 0 015.008 5.005v5.516a5.006 5.006 0 01-5.008 5.005H5.258A5.006 5.006 0 01.25 15.745V10.23a5.006 5.006 0 015.008-5.005h.203zm0 1.5v1.581a.75.75 0 101.5 0v-1.58h6.062v1.58a.75.75 0 001.5 0v-1.58h.22a3.506 3.506 0 013.507 3.504v5.516a3.506 3.506 0 01-3.508 3.505H5.258a3.506 3.506 0 01-3.508-3.505V10.23a3.506 3.506 0 013.508-3.505h.203zm7.562-1.5H6.96A3.023 3.023 0 019.998 2.25H10a3.022 3.022 0 013.022 2.974z"/></svg><svg viewBox="0 0 21 21" id="search" xmlns="http://www.w3.org/2000/svg"><path fill-rule="evenodd" clip-rule="evenodd" d="M9.767 1.528a8.239 8.239 0 100 16.477 8.239 8.239 0 000-16.477zM.028 9.767c0-5.379 4.36-9.739 9.739-9.739 5.378 0 9.738 4.36 9.738 9.739 0 2.538-.97 4.849-2.561 6.582l3.128 3.12a.75.75 0 11-1.06 1.062l-3.165-3.157a9.697 9.697 0 01-6.08 2.131c-5.379 0-9.739-4.36-9.739-9.738z"/></svg></svg>